<svg width="500" height="330" viewBox="0 0 500 330" fill="none" xmlns="http://www.w3.org/2000/svg">
<path d="M123.779 140.064C128.596 143.836 131 148.289 131 153.415C131 160.436 128.114 165.843 122.352 169.654C116.589 173.466 108.571 175.371 98.3166 175.371C96.0286 175.371 94.0974 175.331 92.5125 175.261C87.2962 175.111 82.2058 175.03 77.2414 175.03C69.1073 175.03 63.0303 175.141 59 175.371V173.105C61.6029 172.954 63.5236 172.653 64.7411 172.202C65.9586 171.75 66.7878 170.888 67.2286 169.594C67.6589 168.31 67.8793 166.234 67.8793 163.365V107.235C67.8793 104.366 67.6589 102.29 67.2286 101.006C66.7983 99.7222 65.9691 98.8596 64.7411 98.3982C63.5131 97.9468 61.6029 97.6459 59 97.4954V95.2286C63.0303 95.4593 69.0233 95.5696 77 95.5696L90.1405 95.4593C91.7149 95.3891 93.5306 95.3489 95.5877 95.3489C105.065 95.3489 112.307 96.9739 117.314 100.214C122.331 103.453 124.829 107.757 124.829 113.113C124.829 117.486 122.834 121.558 118.846 125.34C114.858 129.111 108.959 131.679 101.14 133.033V133.264C111.405 134.016 118.941 136.283 123.758 140.054L123.779 140.064ZM89.3744 98.3079C88.3878 98.8395 87.6951 99.7824 87.3067 101.136C86.9079 102.491 86.719 104.537 86.719 107.245V132.822H91.8093C96.9417 132.822 100.531 131.147 102.588 127.787C104.645 124.427 105.664 119.964 105.664 114.377C105.664 108.79 104.74 104.497 102.882 101.698C101.024 98.9097 98.0857 97.5155 94.0554 97.5155C91.9248 97.5155 90.3609 97.7763 89.3744 98.3079ZM111.342 152.964C111.342 147.005 109.757 142.482 106.608 139.382C103.449 136.293 98.474 134.738 91.6834 134.738H86.7085V163.375C86.7085 166.093 86.9079 168.089 87.2962 169.373C87.695 170.657 88.4612 171.54 89.6053 172.031C90.7493 172.523 92.502 172.764 94.874 172.764C105.842 172.764 111.331 166.164 111.331 152.964H111.342Z" fill="white"/>
<path d="M210 171.029C208.247 173.258 207.97 173.667 205.715 174.801C203.398 175.966 200.435 176.314 197.041 176.314C192.571 176.314 189.044 175.399 186.461 173.567C183.877 171.735 182.196 168.61 181.427 164.19L179.346 152.962C178.341 147.497 177.131 143.476 175.706 140.888C174.281 138.3 171.903 137.016 168.591 137.016H161.076V162.846C161.076 165.693 161.292 167.754 161.712 169.028C162.132 170.302 162.922 171.158 164.08 171.616C165.239 172.074 167.125 172.363 169.75 172.512V174.761C165.587 174.533 159.764 174.423 152.28 174.423C144.027 174.423 137.937 174.533 134 174.761V172.512C136.543 172.363 138.419 172.064 139.608 171.616C140.797 171.168 141.607 170.312 142.038 169.028C142.458 167.754 142.673 165.693 142.673 162.846V107.144C142.673 104.297 142.458 102.236 142.038 100.962C141.617 99.688 140.808 98.8319 139.608 98.3741C138.408 97.9261 136.543 97.6275 134 97.4782V95.2286C137.937 95.4575 143.791 95.567 151.583 95.567L164.418 95.4575C165.956 95.3878 167.73 95.348 169.739 95.348C180.381 95.348 188.378 97.0302 193.74 100.405C199.102 103.779 201.778 108.607 201.778 114.888C201.778 120.203 199.768 124.882 195.76 128.923C191.751 132.964 185.118 135.513 175.86 136.558C182.801 137.155 187.968 138.618 191.361 140.938C194.755 143.257 196.949 146.741 197.954 151.379L200.619 162.946C201.234 165.942 201.952 168.042 202.762 169.237C203.572 170.431 204.71 171.029 206.176 171.029C207.099 170.959 207.529 170.571 208.37 169.665L209.99 171.009L210 171.029ZM163.67 98.2646C162.706 98.7921 162.03 99.7278 161.65 101.072C161.261 102.415 161.076 104.446 161.076 107.134V134.766H166.049C172.374 134.766 176.711 133.134 179.059 129.879C181.406 126.624 182.585 122.035 182.585 116.122C182.585 110.209 181.468 105.342 179.233 102.196C176.998 99.0509 173.338 97.4782 168.243 97.4782C166.161 97.4782 164.634 97.737 163.67 98.2646Z" fill="white"/>
<path d="M280 175.371C274.604 175.141 265.529 175.03 252.765 175.03C235.48 175.03 222.558 175.141 214 175.371V173.105C216.614 172.954 218.543 172.653 219.765 172.202C220.988 171.75 221.821 170.888 222.263 169.594C222.695 168.31 222.917 166.234 222.917 163.365V107.235C222.917 104.366 222.695 102.29 222.263 101.006C221.831 99.7222 220.998 98.8596 219.765 98.3982C218.532 97.9468 216.614 97.6459 214 97.4954V95.2286C222.558 95.4593 235.48 95.5696 252.765 95.5696C264.422 95.5696 272.706 95.4593 277.618 95.2286C277.059 101.488 276.785 107.074 276.785 111.979C276.785 115.299 276.901 117.867 277.144 119.673H274.403C273.212 111.598 271.073 105.941 267.985 102.701C264.897 99.4614 260.533 97.8365 254.905 97.8365H250.025C247.569 97.8365 245.777 98.0271 244.671 98.3982C243.564 98.7793 242.805 99.5115 242.415 100.605C242.015 101.698 241.825 103.453 241.825 105.871V133.936H245.63C249.835 133.936 253.018 132.461 255.2 129.522C257.382 126.584 258.91 123.073 259.774 119.001H262.504C262.262 122.17 262.146 125.721 262.146 129.643V135.079C262.146 138.931 262.388 144.287 262.862 151.148H260.122C258.457 141.188 253.619 136.213 245.619 136.213H241.814V164.729C241.814 167.146 242.015 168.902 242.405 169.995C242.805 171.088 243.553 171.821 244.66 172.202C245.767 172.583 247.559 172.764 250.014 172.764H255.843C261.471 172.764 266.014 170.938 269.46 167.277C272.907 163.616 275.341 157.417 276.775 148.66H279.515C279.273 151.148 279.157 154.318 279.157 158.169C279.157 165.11 279.431 170.848 279.989 175.371H280Z" fill="white"/>
<path d="M397.99 95.2386V97.4992C396.03 98.2494 394.122 99.6998 392.287 101.84C390.442 103.981 388.899 107.012 387.637 110.923L366.933 175.371C366.068 175.291 364.702 175.261 362.815 175.261C360.928 175.261 359.563 175.301 358.697 175.371L341.402 125.037L323.992 175.371C323.127 175.291 321.761 175.261 319.874 175.261C317.987 175.261 316.622 175.301 315.756 175.371L289.412 104.721C288.474 102.241 287.338 100.43 286.003 99.2997C284.669 98.1694 283.334 97.5692 282 97.4892V95.2286C286.702 95.4586 292.55 95.5687 299.525 95.5687C306.113 95.5687 310.93 95.4586 313.995 95.2286V97.4892C311.253 97.8693 309.877 99.3297 309.877 101.89C309.877 103.091 310.231 104.791 310.94 106.972L328.11 154.716L339.995 121.086L334 103.591C333.218 101.41 332.291 99.8899 331.238 99.0196C330.174 98.1594 328.944 97.6492 327.537 97.4992V95.2386C331.926 95.4686 337.534 95.5787 344.352 95.5787C352.036 95.5787 357.686 95.4686 361.293 95.2386V97.4992C358.468 97.5792 356.435 97.8893 355.174 98.4595C353.923 99.0196 353.297 100.1 353.297 101.68C353.297 103.031 353.693 104.801 354.475 106.982L370.592 154.155L381.768 120.076C383.572 114.434 384.479 110.073 384.479 106.982C384.479 103.891 383.634 101.4 381.945 99.9299C380.256 98.4595 377.734 97.6593 374.356 97.4992V95.2386C379.683 95.4686 384.552 95.5787 388.941 95.5787C392.621 95.5787 395.644 95.4686 398 95.2386H397.99Z" fill="white"/>
<path d="M229.183 187.027C227.995 187.478 227.185 188.351 226.753 189.635C226.322 190.919 226.101 192.995 226.101 195.864V251.994C226.101 254.862 226.322 256.939 226.753 258.222C227.185 259.506 227.995 260.369 229.183 260.83C230.372 261.282 232.307 261.583 235 261.733V264C231.119 263.769 225.112 263.659 216.96 263.659C208.809 263.659 202.76 263.769 198.332 264V261.733C200.941 261.583 202.865 261.282 204.086 260.83C205.306 260.379 206.147 259.516 206.579 258.222C207.01 256.939 207.231 254.862 207.231 251.994V224.831H175.78V251.994C175.78 254.862 176.001 256.939 176.432 258.222C176.863 259.506 177.673 260.369 178.862 260.83C180.05 261.292 181.986 261.583 184.679 261.733V264C180.408 263.769 174.433 263.659 166.755 263.659C158.287 263.659 152.039 263.769 148 264V261.733C150.609 261.583 152.534 261.282 153.754 260.83C154.974 260.379 155.805 259.516 156.247 258.222C156.678 256.939 156.899 254.862 156.899 251.994V195.864C156.899 192.995 156.678 190.919 156.247 189.635C155.815 188.351 154.984 187.488 153.754 187.027C152.523 186.575 150.609 186.274 148 186.124V183.857C152.039 184.088 158.287 184.198 166.755 184.198C174.433 184.198 180.408 184.088 184.679 183.857V186.124C181.986 186.274 180.05 186.575 178.862 187.027C177.673 187.478 176.863 188.351 176.432 189.635C176.001 190.919 175.78 192.995 175.78 195.864V222.574H207.231V195.864C207.231 192.995 207.01 190.919 206.579 189.635C206.147 188.351 205.316 187.488 204.086 187.027C202.855 186.575 200.941 186.274 198.332 186.124V183.857C202.76 184.088 208.977 184.198 216.96 184.198C224.944 184.198 231.119 184.088 235 183.857V186.124C232.307 186.274 230.372 186.575 229.183 187.027Z" fill="white"/>
<path d="M301.098 187.76C307.395 190.988 312.281 195.674 315.777 201.799C319.263 207.924 321 215.238 321 223.731C321 232.224 319.22 239.328 315.651 245.712C312.081 252.097 307.111 257.063 300.74 260.59C294.358 264.127 287.093 265.886 278.942 265.886C270.792 265.886 263.199 264.267 256.902 261.04C250.605 257.812 245.709 253.126 242.234 247.001C238.748 240.876 237 233.572 237 225.069C237 216.566 238.78 209.472 242.349 203.088C245.919 196.703 250.879 191.737 257.26 188.21C263.631 184.683 270.907 182.914 279.058 182.914C287.208 182.914 294.801 184.533 301.098 187.76ZM267.053 189.958C263.726 193.306 261.178 197.982 259.387 203.997C257.608 210.012 256.713 216.886 256.713 224.63C256.713 232.373 257.724 239.328 259.745 245.263C261.767 251.198 264.495 255.784 267.948 259.011C271.392 262.239 275.214 263.857 279.416 263.857C283.618 263.857 287.609 262.189 290.936 258.842C294.264 255.494 296.812 250.818 298.602 244.803C300.382 238.788 301.277 231.914 301.277 224.17C301.277 216.427 300.266 209.482 298.244 203.537C296.222 197.602 293.495 193.016 290.041 189.779C286.598 186.551 282.775 184.933 278.574 184.933C274.372 184.933 270.381 186.601 267.053 189.948V189.958Z" fill="white"/>
<path d="M434.697 184.025C437.194 184.775 439.734 185.866 442.316 187.297C443.206 187.747 443.988 188.128 444.674 188.428C445.359 188.728 445.938 188.878 446.431 188.878C447.16 188.878 447.717 188.478 448.124 187.697C448.531 186.907 448.853 185.646 449.088 183.915H451.874C451.467 188.958 451.274 197.543 451.274 209.661H448.499C448.178 205.598 447.192 201.726 445.542 198.034C443.891 194.351 441.555 191.359 438.534 189.058C435.512 186.767 431.986 185.616 427.957 185.616C423.928 185.616 420.799 186.647 418.345 188.718C415.881 190.789 414.659 193.591 414.659 197.133C414.659 199.765 415.259 202.066 416.47 204.017C417.681 205.979 419.374 207.76 421.549 209.381C423.725 211.002 427.068 213.203 431.579 215.985L435.448 218.466C440.205 221.398 443.945 223.96 446.688 226.141C449.431 228.322 451.66 230.864 453.396 233.766C455.132 236.668 456 240.03 456 243.872C456 248.685 454.671 252.738 452.014 256.01C449.356 259.282 445.745 261.753 441.191 263.404C436.637 265.055 431.579 265.886 426.018 265.886C421.506 265.886 417.756 265.505 414.777 264.755C411.798 264.005 409.055 262.984 406.558 261.703C404.79 260.652 403.419 260.122 402.443 260.122C401.715 260.122 401.158 260.512 400.75 261.303C400.343 262.093 400.022 263.354 399.786 265.085H397C397.321 260.342 397.482 250.186 397.482 234.606H400.258C400.825 243.032 402.84 249.866 406.301 255.099C409.762 260.332 415.088 262.944 422.257 262.944C426.607 262.944 430.197 261.853 433.015 259.672C435.833 257.491 437.248 254.369 437.248 250.306C437.248 246.244 435.801 242.481 432.897 239.469C429.993 236.457 425.396 233.075 419.117 229.313C414.284 226.381 410.416 223.82 407.512 221.638C404.608 219.457 402.229 216.875 400.375 213.903C398.522 210.932 397.6 207.49 397.6 203.577C397.6 199.064 398.822 195.242 401.286 192.12C403.74 188.998 407.03 186.687 411.134 185.176C415.249 183.675 419.76 182.914 424.678 182.914C428.868 182.914 432.211 183.295 434.708 184.045L434.697 184.025Z" fill="white"/>
<path d="M145 202.718C145 196.642 143.145 191.744 139.362 188.202C135.599 184.67 130.568 182.904 124.45 182.914C119.611 182.914 115.646 183.952 112.662 186.107C109.656 188.252 108.111 191.315 108.121 195.016C108.121 197.949 109.08 200.394 111.042 202.12C112.981 203.846 115.561 204.694 118.62 204.694C121.668 204.694 124.28 203.876 126.294 202.209C128.351 200.533 129.374 198.149 129.364 195.286C129.364 193.42 128.767 191.624 127.626 189.948C126.816 188.751 125.761 187.773 124.503 186.985C124.962 186.915 125.473 186.875 126.07 186.875C129.513 186.875 132.54 187.963 135.269 190.197C137.965 192.422 139.255 195.076 139.266 198.398C139.244 201.312 137.912 203.596 135.024 205.532C132.092 207.477 127.445 209.333 121.125 211.029H121.082L121.039 211.049C117.693 212.296 113.333 213.593 107.983 214.94H107.972L102.643 216.426C93.4762 218.332 86.4522 221.295 81.5919 225.376C76.6889 229.476 74.2374 235.103 74.2481 242.017C74.2481 247.744 76.0707 252.283 79.7905 255.416C83.4571 258.519 88.1043 260.075 93.5508 260.065C98.7949 260.065 103.186 259.008 106.661 256.833C110.189 254.648 112.012 251.256 111.99 247.015C111.99 244.082 111.084 241.628 109.219 239.802C107.354 237.966 104.753 237.059 101.609 237.069C98.5604 237.069 95.9383 237.917 93.9239 239.633C91.8774 241.359 90.8542 243.813 90.8649 246.756C90.8649 249.031 91.4404 251.046 92.6129 252.712C93.4869 253.969 94.67 254.977 96.0982 255.725C95.949 255.775 95.7998 255.825 95.6186 255.865C94.6487 256.114 93.7427 256.244 92.922 256.244C89.7031 256.244 86.8252 255.296 84.1819 253.371C81.5812 251.455 80.3555 249.111 80.3448 246.078C80.3448 244.571 80.7178 243.274 81.4426 242.117C82.1674 240.959 83.2759 239.932 84.8001 239.034C87.9018 237.218 92.9326 235.422 99.8394 233.726H99.8607L106.842 231.551L114.42 229.237C117.277 230.733 119.419 232.769 120.869 235.392C122.361 238.116 123.139 241.488 123.139 245.539C123.139 250.238 121.583 254.239 118.439 257.661C115.262 261.113 111.138 263.737 105.989 265.542C100.831 267.358 95.4481 268.256 89.8416 268.266C78.6181 268.266 69.9313 266.101 63.7067 261.861C57.5247 257.641 54.4443 251.405 54.423 242.835C54.423 237.627 55.5422 233.387 57.7166 230.075C59.8376 226.842 62.854 224.129 66.7551 221.884C68.2899 222.832 69.6116 223.61 70.6881 224.188C71.9565 224.877 73.3101 225.236 74.6957 225.236C75.8255 225.236 76.8701 224.947 77.6908 224.328C78.5541 223.7 79.0018 222.702 78.9911 221.634C78.9911 220.377 78.5009 219.25 77.5416 218.432C76.561 217.584 75.186 217.215 73.5766 217.215C71.9778 217.215 69.7928 217.554 66.9789 218.192C64.0691 214.451 62.6089 210.191 62.6089 205.282C62.6089 199.725 64.0264 195.575 66.7444 192.692C69.505 189.788 72.9477 188.372 77.2964 188.362C78.9592 188.362 80.4834 188.581 81.8796 189C82.5938 189.22 83.2013 189.459 83.7023 189.729C81.901 190.377 80.3554 191.474 79.119 193.001C77.5309 194.966 76.7209 197.201 76.7209 199.606C76.7209 202.449 77.6375 204.784 79.5347 206.39C81.3893 207.966 83.7982 208.754 86.6014 208.744C89.4259 208.744 91.9307 207.836 93.9345 206.031C95.9597 204.235 96.9935 201.84 96.9829 199.067C96.9829 196.413 96.2368 194.068 94.7126 192.133C93.2417 190.257 91.3445 188.711 89.0422 187.494C89.0422 187.494 89.0209 187.484 89.0103 187.474C89.0103 187.474 88.9889 187.464 88.9783 187.454C87.3369 186.426 85.4822 185.678 83.4358 185.219C81.3574 184.75 78.778 184.521 75.6763 184.521C68.8441 184.521 62.8753 186.107 57.8444 189.309C52.7603 192.522 50.1489 197.131 50.1702 202.838C50.1702 206.639 51.396 210.071 53.8475 213.024C55.9685 215.598 58.9849 217.823 62.8647 219.709C60.0401 220.657 57.077 221.994 53.9754 223.779C50.085 226.004 46.6422 229.267 43.6045 233.527C40.5242 237.857 39 243.174 39 249.41C39 256.384 40.9292 262.519 44.7876 267.737C48.6461 272.955 54.1246 276.946 61.1486 279.69C68.1726 282.433 76.2839 283.8 85.4716 283.8C94.0091 283.8 101.598 282.343 108.217 279.41C114.825 276.487 119.974 272.446 123.619 267.328C127.264 262.21 129.097 256.394 129.097 249.959C129.097 244.651 128.085 239.942 126.038 235.861C124.269 232.32 121.786 229.576 118.62 227.68L119.217 227.461C127.541 225.545 133.926 222.702 138.317 218.851C142.762 214.96 144.968 209.503 144.968 202.698L145 202.718Z" fill="white"/>
<path d="M393 221.571C392.423 222.551 391.756 223.5 391 224.4C391.769 223.49 392.436 222.541 393 221.571Z" fill="white"/>
<path d="M383.474 217.128C383.368 217.01 383.184 216.928 383 216.857C383.342 217.164 383.658 217.482 384 217.8C383.816 217.576 383.632 217.376 383.447 217.14L383.474 217.128Z" fill="white"/>
<path d="M369 188.571C369.861 188.142 370.532 187.861 371 187.629C370.544 187.831 369.886 188.124 369 188.571Z" fill="white"/>
<path d="M450.919 84.7313C450.504 82.5192 448.61 80.8851 446.301 80.4466L447.11 80.3071C448.068 80.1378 448.706 79.241 448.536 78.3043L448.493 78.0453C448.334 77.1485 447.482 76.5506 446.578 76.6403L445.588 34.7207C445.705 33.6246 445.695 32.4987 445.503 31.3628V31.3428C444.365 24.4575 437.768 19.7843 430.766 20.9103C423.776 22.0362 419.03 28.5229 420.169 35.4082C420.413 36.873 420.913 38.2381 421.605 39.4737L435.427 78.5534C434.469 78.7228 433.831 79.6196 434.001 80.5563L434.044 80.8153C434.214 81.752 435.118 82.3897 436.076 82.2203L436.959 82.0708C435.342 83.2067 434.427 85.0701 434.799 87.033C435.278 89.6038 437.746 91.4272 440.534 91.4571C440.864 91.4571 441.205 91.4571 441.545 91.4073L446.11 90.7596C446.44 90.7098 446.738 90.6301 447.035 90.5404C449.706 89.7433 451.398 87.322 450.919 84.7412V84.7313ZM443.322 50.6834C442.343 43.9576 440.619 34.6709 438.076 30.6951C436.289 27.8852 432.98 26.6596 430.373 26.1216C428.947 25.8326 428.702 23.8995 430.032 23.3415C432.213 22.4248 435.033 22.0362 438.619 24.6967C445.035 29.4596 443.95 39.8822 443.95 39.8822L444.131 50.6236C444.131 51.1318 443.386 51.1916 443.311 50.6934L443.322 50.6834Z" fill="white"/>
<path d="M352.43 257.951C351.765 256.557 351.432 254.35 351.432 251.33V238.77C347.96 239.031 344.239 238.841 341.744 239.392C342.565 233.975 339.572 229.611 343.615 221.877C342.482 222.028 341.401 222.208 340.424 222.579C340.154 216.641 340.039 212.457 342.41 207.903C341.432 207.963 340.476 208.094 339.541 208.314C341.328 202.646 341.027 198.945 347.462 193.748C346.401 193.247 345.383 192.896 344.395 192.825C346.339 190.899 350.164 187.047 355.975 184.289L341.827 184.198C333.927 184.198 327.992 184.088 324 183.857V186.124C326.578 186.275 328.48 186.576 329.686 187.027C330.892 187.479 331.713 188.351 332.15 189.635C332.576 190.919 332.794 192.996 332.794 195.865V252.002C332.794 254.871 332.576 256.948 332.15 258.232C331.723 259.516 330.902 260.379 329.686 260.83C328.47 261.281 326.578 261.582 324 261.733V264L327.753 263.89C333.699 263.739 338.615 263.659 342.534 263.659C347.222 263.659 354.385 263.769 364 264V261.512C360.32 261.442 357.649 261.171 355.965 260.72C354.281 260.268 353.106 259.345 352.451 257.951H352.43Z" fill="white"/>
<path d="M363.394 200.356C360.304 200.877 354.656 198.397 354.309 198.208C353.371 197.687 352.698 197.28 352.178 196.958C350.914 196.182 350.638 195.964 350.343 196.211C346.193 199.628 345.255 202.676 345 204.701C347.264 204.474 349.649 204.9 352.168 205.222C355.522 205.657 359.101 205.913 362.915 204.19C363.312 204.01 363.006 203.537 363.975 200.962C364.097 200.64 363.751 200.29 363.394 200.356Z" fill="#4D5B15"/>
<path d="M350.947 211.009C351.109 210.241 350.882 209.722 350.515 209.369C349.942 208.809 349.013 208.674 348.754 208.653C347.382 208.549 346.031 208.425 344.702 208.373C344.216 208.352 343.806 208.601 343.644 209.006C341.742 213.739 341.84 216.79 342.228 219.686C344.584 219.25 347.522 219.706 350.32 217.859C350.45 217.776 350.515 217.62 350.493 217.465C350.353 216.219 350.385 215.005 350.515 213.759C350.612 212.856 350.752 211.943 350.947 210.999V211.009Z" fill="#74911A"/>
<path d="M351.898 235.626C354.007 235.498 356.116 235.035 358 233.471C357.59 231.739 357.242 229.998 357.55 228.119C357.601 227.833 357.324 227.538 357.007 227.548C355.932 227.578 355.707 227.046 352.994 227.273C353.096 225.423 352.523 222.934 352.226 221.064C352.195 220.877 352.052 220.73 351.888 220.671C351.745 220.612 351.591 220.612 351.458 220.69C350.107 221.556 348.55 221.871 346.984 222.078C343.554 228.935 345.633 232.635 345.54 235.714C347.486 235.498 349.687 235.744 351.888 235.616L351.898 235.626Z" fill="#9DB539"/>
<path d="M370.761 226.255C367.954 228.072 364.156 228.091 360.455 228.101C360.219 228.101 360.025 228.26 360.014 228.479C359.831 231.605 361.477 234.295 361.735 236.657C363.252 236.022 371.536 236.052 375 229.67C374.667 228.796 374.053 226.533 373.3 225.431C373.042 225.054 371.149 225.987 370.761 226.245V226.255Z" fill="#74911A"/>
<path d="M371.903 221.538C372 221.439 372.022 221.289 371.979 221.15C371.352 219.209 370.887 216.979 370.833 214.152C370.833 213.814 370.433 213.555 370.098 213.675C368.164 214.371 366.803 215.227 365.095 216.84C364.879 216.422 363.334 210.012 363.496 207.971C363.528 207.603 363.063 207.314 362.718 207.473C360.265 208.628 357.736 208.996 355.207 209.026C355.034 209.026 354.883 209.116 354.818 209.255C352.603 213.854 355.607 221.329 355.434 224.295C359.822 223.39 367.602 226.396 371.925 221.538H371.903Z" fill="#74911A"/>
<path d="M383.369 217.755C383.244 217.515 383.13 217.276 383.005 217.037C381.662 214.356 380.652 212.104 380.496 212.143C378.05 212.831 376.645 213.17 374.302 213.808C374.115 213.858 373.99 214.027 374.001 214.216C374.604 223.595 378.321 225.229 379.081 231C382.672 229.346 385.025 228.199 386.961 224.243C387.034 224.103 387.002 223.924 386.888 223.774C385.712 222.19 384.452 219.897 383.369 217.755Z" fill="#4D5B15"/>
<path d="M447.236 136.086C444.549 133.929 440.875 131.397 436.225 128.498L432.435 126.045C428.016 123.295 424.741 121.119 422.61 119.517C420.479 117.914 418.821 116.153 417.634 114.215C416.448 112.276 415.86 110.011 415.86 107.409C415.86 103.917 417.068 101.138 419.471 99.09C421.875 97.0424 425.014 96.0235 428.887 96.0235C432.76 96.0235 436.287 97.1611 439.248 99.4263C442.208 101.701 444.496 104.659 446.113 108.299C447.729 111.949 445.619 106.321 451.13 123.078L460 121.564C453.156 95.3905 437.967 95.2124 435.521 94.4606C433.075 93.7187 429.8 93.3429 425.696 93.3429C420.878 93.3429 416.459 94.0847 412.428 95.5784C408.397 97.0721 405.185 99.3571 402.781 102.443C400.367 105.53 399.17 109.308 399.17 113.77C399.17 117.637 400.073 121.04 401.889 123.978C403.705 126.916 406.035 129.468 408.88 131.624C411.725 133.781 415.514 136.313 420.248 139.211C426.41 142.931 430.903 146.284 433.747 149.252C436.592 152.229 438.009 155.8 438.009 159.964C438.009 164.129 436.623 167.067 433.863 169.223C431.102 171.38 427.586 172.458 423.324 172.458C416.291 172.458 411.084 169.876 407.694 164.703C404.303 159.529 402.319 152.783 401.774 144.444H399.055C399.055 157.412 402.802 174.387 381.326 188.146C378.89 186.771 374.618 185.515 368.908 188.958C368.918 188.948 368.929 188.938 368.939 188.928C368.971 188.898 368.992 188.868 369.023 188.839C369.758 188.097 370.293 187.612 370.682 187.276C371.815 186.287 371.605 186.603 371.112 185.505C369.685 182.31 357.183 187.217 352.197 190.649C351.735 190.966 351.315 191.272 351 191.559C351.283 191.698 351.609 191.915 351.955 192.162C354.779 194.18 359.555 199.116 366.525 197.969C367.449 196.327 368.572 195.011 369.8 194.2C366.588 198.216 365.223 207.742 366.556 212.985C372.33 208.573 382.701 210.71 387.498 205.348C386.868 207.327 385.346 208.682 383.435 209.651C384.8 217.911 388.957 221.017 391.109 224.4C391.728 223.51 392.274 222.55 392.746 221.571C396.074 214.666 395.853 206.239 394.268 204.923C392.904 203.785 391.76 202.559 390.741 206.516C390.542 205.427 390.468 204.745 390.468 204.142C390.468 203.34 390.615 202.678 390.846 201.421C391.256 199.225 391.434 196.386 389.492 194.764C388.39 193.854 386.91 190.431 385.042 190.669C399.076 180.174 403.212 169.639 403.925 169.639C404.87 169.639 406.214 170.163 407.956 171.202C410.402 172.468 413.089 173.477 416.007 174.219C418.926 174.961 422.599 175.336 427.019 175.336C432.467 175.336 437.421 174.515 441.882 172.883C446.344 171.251 449.881 168.808 452.484 165.573C455.087 162.339 456.389 158.342 456.389 153.574C456.389 149.776 455.539 146.452 453.838 143.584C452.138 140.725 449.944 138.212 447.267 136.046L447.236 136.086Z" fill="white"/>
<path d="M156.818 308.314H154.061V286.276H146V283.8H165L164.789 286.276H156.808V308.314H156.818Z" fill="white"/>
<path d="M192 308.314H189.05L185.968 300.766H174.951L171.869 308.314H169L178.959 283.8H182.082L192 308.314ZM185.113 298.489L181.4 289.369C181.207 288.902 181.044 288.464 180.912 288.066C180.78 287.669 180.668 287.261 180.556 286.853H180.342C180.23 287.271 180.108 287.669 179.986 288.066C179.864 288.464 179.701 288.902 179.498 289.369L175.744 298.489H185.113Z" fill="white"/>
<path d="M218 291.686C218 293.476 217.581 294.958 216.734 296.122C215.886 297.285 214.74 298.151 213.284 298.697C211.828 299.244 210.153 299.523 208.279 299.523H203.732V308.314H201V283.8H208.279C210.183 283.8 211.858 284.078 213.304 284.645C214.75 285.212 215.896 286.067 216.734 287.221C217.571 288.375 218 289.866 218 291.676V291.686ZM215.228 291.686C215.228 290.284 214.899 289.18 214.231 288.365C213.573 287.549 212.696 286.972 211.619 286.634C210.542 286.286 209.355 286.117 208.059 286.117H203.712V297.216H208.059C209.355 297.216 210.542 297.047 211.619 296.718C212.696 296.39 213.563 295.813 214.231 295.008C214.889 294.192 215.228 293.089 215.228 291.686Z" fill="white"/>
<path d="M244.571 291.398C244.571 293.268 243.998 294.779 242.84 295.933C241.683 297.086 240.254 297.862 238.554 298.24L246 308.314H242.58L235.655 298.867H229.857V308.314H227V283.8H234.79C236.75 283.8 238.471 284.088 239.941 284.665C241.412 285.242 242.548 286.087 243.362 287.201C244.165 288.315 244.571 289.717 244.571 291.388V291.398ZM241.62 291.398C241.62 290.135 241.307 289.111 240.692 288.345C240.077 287.579 239.232 287.012 238.179 286.654C237.126 286.296 235.916 286.117 234.56 286.117H229.847V296.639H234.56C235.916 296.639 237.126 296.46 238.179 296.102C239.232 295.744 240.066 295.177 240.692 294.411C241.318 293.645 241.62 292.641 241.62 291.398Z" fill="white"/>
<path d="M265.5 283.8C268.14 283.8 270.469 284.326 272.497 285.379C274.525 286.432 276.103 287.884 277.262 289.726C278.421 291.578 279 293.684 279 296.062C279 298.44 278.421 300.507 277.262 302.349C276.103 304.201 274.514 305.653 272.497 306.716C270.479 307.778 268.151 308.314 265.5 308.314C262.849 308.314 260.521 307.778 258.482 306.716C256.443 305.653 254.855 304.191 253.717 302.349C252.569 300.507 252 298.401 252 296.062C252 293.723 252.569 291.588 253.717 289.756C254.855 287.923 256.443 286.471 258.482 285.408C260.51 284.346 262.849 283.81 265.5 283.81V283.8ZM265.5 305.887C267.55 305.887 269.363 305.458 270.93 304.591C272.508 303.723 273.731 302.554 274.6 301.072C275.48 299.591 275.909 297.914 275.909 296.052C275.909 294.191 275.469 292.553 274.6 291.062C273.72 289.561 272.497 288.381 270.93 287.523C269.353 286.666 267.55 286.227 265.5 286.227C263.45 286.227 261.637 286.656 260.07 287.523C258.492 288.391 257.269 289.551 256.4 291.023C255.52 292.495 255.091 294.171 255.091 296.062C255.091 297.953 255.531 299.561 256.4 301.053C257.28 302.554 258.503 303.733 260.07 304.591C261.647 305.458 263.45 305.887 265.5 305.887Z" fill="white"/>
<path d="M299.5 283.8C302.14 283.8 304.469 284.326 306.497 285.379C308.525 286.432 310.103 287.884 311.262 289.726C312.421 291.578 313 293.684 313 296.062C313 298.44 312.421 300.507 311.262 302.349C310.103 304.201 308.514 305.653 306.497 306.716C304.479 307.778 302.151 308.314 299.5 308.314C296.849 308.314 294.521 307.778 292.482 306.716C290.443 305.653 288.855 304.191 287.717 302.349C286.569 300.507 286 298.401 286 296.062C286 293.723 286.569 291.588 287.717 289.756C288.855 287.923 290.443 286.471 292.482 285.408C294.51 284.346 296.849 283.81 299.5 283.81V283.8ZM299.5 305.887C301.55 305.887 303.363 305.458 304.93 304.591C306.508 303.723 307.731 302.554 308.6 301.072C309.48 299.591 309.909 297.914 309.909 296.052C309.909 294.191 309.469 292.553 308.6 291.062C307.72 289.561 306.497 288.381 304.93 287.523C303.353 286.666 301.55 286.227 299.5 286.227C297.45 286.227 295.637 286.656 294.07 287.523C292.492 288.391 291.269 289.551 290.4 291.023C289.52 292.495 289.091 294.171 289.091 296.062C289.091 297.953 289.531 299.561 290.4 301.053C291.28 302.554 292.503 303.733 294.07 304.591C295.647 305.458 297.45 305.887 299.5 305.887Z" fill="white"/>
<path d="M348 283.8V308.314H345.046V288.713H344.862C344.711 289.15 344.528 289.598 344.302 290.055C344.075 290.513 343.805 291.05 343.471 291.686L335.869 304.814H332.958L325.399 291.686C325.076 291.08 324.796 290.543 324.569 290.075C324.343 289.608 324.159 289.15 324.008 288.713H323.825V308.314H321V283.8H324.138L332.861 299.155C333.163 299.702 333.443 300.249 333.713 300.786C333.982 301.323 334.209 301.8 334.381 302.208H334.565C334.748 301.79 334.974 301.313 335.255 300.766C335.535 300.219 335.826 299.682 336.128 299.155L344.851 283.8H347.989H348Z" fill="white"/>
<path d="M456.007 93.3429H442.993C442.445 93.3429 442 93.7061 442 94.1543V100.074C442 100.522 442.445 100.886 442.993 100.886H456.007C456.555 100.886 457 100.522 457 100.074V94.1543C457 93.7061 456.555 93.3429 456.007 93.3429Z" fill="white"/>
<path d="M450.661 97.1115L448.867 87.4597C448.694 86.5289 447.755 85.907 446.77 86.0706L441.857 86.8871C440.873 87.0507 440.215 87.9379 440.388 88.8687L442.183 98.5205C442.356 99.4513 443.294 100.073 444.279 99.9096L449.192 99.0932C450.177 98.9295 450.835 98.0423 450.661 97.1115Z" fill="white"/>
</svg>
